# xmcd
#
# Track frame offsets:
#	150
#	24763
#	43177
#	68511
#	95543
#	118091
#	142638
#	167865
#	192120
#	214965
#	238207
#
# Disc length: 3492 seconds
#
# Revision: 1
# Processed by: cddbd v1.5.2PL0 Copyright (c) Steve Scherf et al.
# Submitted via: EZCDAudioConverter 8.0.2.1
#
DISCID=930da20b
DTITLE=Various Artist - Rất Huế
DYEAR=1900
DGENRE=blues
TTITLE0=Vân Khánh - Bến đợi
TTITLE1=Nhã Phương - Rất Huế
TTITLE2=Khánh Duy - Tình Huế
TTITLE3=Vân Khánh - Huế xưa
TTITLE4=Nhã Phương - Giấc mơ trăng nước
TTITLE5=Vân Khánh - Vỹ Dạ nhớ em
TTITLE6=Nhã Phương - Tà áo tím
TTITLE7=Vân Khánh - Thần kinh non nước hữu tình
TTITLE8=Thùy Dương - Quê mạ miền Trung
TTITLE9=Quang Linh - Thương về miền Trung
TTITLE10=Vân Khánh - Từ Đàm quê hương tôi
EXTD=
EXTT0=
EXTT1=
EXTT2=
EXTT3=
EXTT4=
EXTT5=
EXTT6=
EXTT7=
EXTT8=
EXTT9=
EXTT10=
PLAYORDER=
